<svg xmlns="http://www.w3.org/2000/svg" fill="none" viewBox="0 0 128 128"><g id="dust__dust" clip-path="url(#dust__clip0_2045_28777)"><g id="dust__Mask group"><mask id="dust__mask0_2045_28777" width="128" height="128" x="0" y="0" maskUnits="userSpaceOnUse" style="mask-type:alpha"><path id="dust__Mask" fill="#000" d="M0 0h128L0 128z"/></mask><g mask="url(#dust__mask0_2045_28777)"><g id="dust__Cloud"><path id="dust__Cloud_2" fill="#e6effc" fill-rule="evenodd" d="M54.837 48.212c-3.763-2.264-8.491-2.43-12.396-.546q-.837.404-1.617.933c-4.141 2.814-6.324 7.916-5.474 12.855-6.96 1.315-11.956 7.887-11.289 14.954C24.73 83.474 30.868 89 37.951 89h53.026c.884 0 1.75-.092 2.59-.267a13 13 0 0 0 4.153-1.656 13.4 13.4 0 0 0 4.024-3.83 13 13 0 0 0 1.424-2.715 12.6 12.6 0 0 0 .827-4.846c-.155-5.785-4.252-10.65-9.604-12.141a12.8 12.8 0 0 0-4.002-.46 19 19 0 0 0 .552-4.014c.23-7.885-4.465-15.464-11.933-18.589-8.743-3.658-19.18-.344-24.17 7.73m36.14 36.785c4.888 0 9.023-4.118 9.023-8.969 0-4.375-3.35-8.11-7.578-8.828a8.8 8.8 0 0 0-1.859-.115l-2.676.116a2 2 0 0 1-2.028-2.484l.649-2.6q.17-.682.273-1.368c1.036-6.853-2.823-13.857-9.315-16.574-6.941-2.904-15.278-.248-19.227 6.142l-1.039 1.68V52a2 2 0 0 1-2.73.661l-1.693-1.018c-2.965-1.783-6.845-1.676-9.706.268q-.535.365-1.005.799c-2.19 2.022-3.284 5.106-2.774 8.066l.334 1.94v.002a2 2 0 0 1-1.6 2.305l-1.934.365c-4.95.936-8.52 5.658-8.048 10.644.471 4.989 4.865 8.967 9.908 8.966z" clip-rule="evenodd"/></g></g></g><g id="dust__Dust"><circle id="dust__Dust 1" cx="54" cy="87" r="3" fill="#fcd966"><animateTransform attributeName="transform" begin="0s" calcMode="spline" dur="3s" keySplines=".42 0 .58 1" repeatCount="indefinite" type="translate" values="0 0;8 -4"/><animate attributeName="opacity" begin="0s" dur="3s" keyTimes="0;0.2;0.8;1" repeatCount="indefinite" values="0;1;1;0"/></circle><circle id="dust__Dust 2" cx="63" cy="87" r="3" fill="#fcd966"><animateTransform attributeName="transform" begin="-2.7s" calcMode="spline" dur="3s" keySplines=".42 0 .58 1" repeatCount="indefinite" type="translate" values="0 0;8 -4"/><animate attributeName="opacity" begin="-2.7s" dur="3s" keyTimes="0;0.2;0.8;1" repeatCount="indefinite" values="0;1;1;0"/></circle><circle id="dust__Dust 3" cx="63" cy="78" r="3" fill="#fcd966"><animateTransform attributeName="transform" begin="-2.4s" calcMode="spline" dur="3s" keySplines=".42 0 .58 1" repeatCount="indefinite" type="translate" values="0 0;8 -4"/><animate attributeName="opacity" begin="-2.4s" dur="3s" keyTimes="0;0.2;0.8;1" repeatCount="indefinite" values="0;1;1;0"/></circle><circle id="dust__Dust 4" cx="72" cy="78" r="3" fill="#fcd966"><animateTransform attributeName="transform" begin="-2.1s" calcMode="spline" dur="3s" keySplines=".42 0 .58 1" repeatCount="indefinite" type="translate" values="0 0;8 -4"/><animate attributeName="opacity" begin="-2.1s" dur="3s" keyTimes="0;0.2;0.8;1" repeatCount="indefinite" values="0;1;1;0"/></circle><circle id="dust__Dust 5" cx="72" cy="69" r="3" fill="#fcd966"><animateTransform attributeName="transform" begin="-1.8s" calcMode="spline" dur="3s" keySplines=".42 0 .58 1" repeatCount="indefinite" type="translate" values="0 0;8 -4"/><animate attributeName="opacity" begin="-1.8s" dur="3s" keyTimes="0;0.2;0.8;1" repeatCount="indefinite" values="0;1;1;0"/></circle><circle id="dust__Dust 6" cx="81" cy="69" r="3" fill="#fcd966"><animateTransform attributeName="transform" begin="-1.5s" calcMode="spline" dur="3s" keySplines=".42 0 .58 1" repeatCount="indefinite" type="translate" values="0 0;8 -4"/><animate attributeName="opacity" begin="-1.5s" dur="3s" keyTimes="0;0.2;0.8;1" repeatCount="indefinite" values="0;1;1;0"/></circle><circle id="dust__Dust 7" cx="81" cy="60" r="3" fill="#fcd966"><animateTransform attributeName="transform" begin="-1.2000000000000002s" calcMode="spline" dur="3s" keySplines=".42 0 .58 1" repeatCount="indefinite" type="translate" values="0 0;8 -4"/><animate attributeName="opacity" begin="-1.2000000000000002s" dur="3s" keyTimes="0;0.2;0.8;1" repeatCount="indefinite" values="0;1;1;0"/></circle><circle id="dust__Dust 8" cx="90" cy="60" r="3" fill="#fcd966"><animateTransform attributeName="transform" begin="-0.8999999999999999s" calcMode="spline" dur="3s" keySplines=".42 0 .58 1" repeatCount="indefinite" type="translate" values="0 0;8 -4"/><animate attributeName="opacity" begin="-0.8999999999999999s" dur="3s" keyTimes="0;0.2;0.8;1" repeatCount="indefinite" values="0;1;1;0"/></circle><circle id="dust__Dust 9" cx="90" cy="51" r="3" fill="#fcd966"><animateTransform attributeName="transform" begin="-0.6000000000000001s" calcMode="spline" dur="3s" keySplines=".42 0 .58 1" repeatCount="indefinite" type="translate" values="0 0;8 -4"/><animate attributeName="opacity" begin="-0.6000000000000001s" dur="3s" keyTimes="0;0.2;0.8;1" repeatCount="indefinite" values="0;1;1;0"/></circle><circle id="dust__Dust 10" cx="99" cy="51" r="3" fill="#fcd966"><animateTransform attributeName="transform" begin="-0.30000000000000027s" calcMode="spline" dur="3s" keySplines=".42 0 .58 1" repeatCount="indefinite" type="translate" values="0 0;8 -4"/><animate attributeName="opacity" begin="-0.30000000000000027s" dur="3s" keyTimes="0;0.2;0.8;1" repeatCount="indefinite" values="0;1;1;0"/></circle><circle id="dust__Dust 11" cx="99" cy="42" r="3" fill="#fcd966"><animateTransform attributeName="transform" begin="0s" calcMode="spline" dur="3s" keySplines=".42 0 .58 1" repeatCount="indefinite" type="translate" values="0 0;8 -4"/><animate attributeName="opacity" begin="0s" dur="3s" keyTimes="0;0.2;0.8;1" repeatCount="indefinite" values="0;1;1;0"/></circle><circle id="dust__Dust 12" cx="108" cy="42" r="3" fill="#fcd966"><animateTransform attributeName="transform" begin="-2.7s" calcMode="spline" dur="3s" keySplines=".42 0 .58 1" repeatCount="indefinite" type="translate" values="0 0;8 -4"/><animate attributeName="opacity" begin="-2.7s" dur="3s" keyTimes="0;0.2;0.8;1" repeatCount="indefinite" values="0;1;1;0"/></circle></g></g><defs><clipPath id="dust__clip0_2045_28777"><rect width="128" height="128" fill="#fff"/></clipPath></defs></svg>