<svg xmlns="http://www.w3.org/2000/svg" fill="none" viewBox="0 0 128 128"><g id="mostly-clear-day-hail__mostly-clear-day-hail" clip-path="url(#mostly-clear-day-hail__clip0_1858_8745)"><g id="mostly-clear-day-hail__Sky"><g id="mostly-clear-day-hail__Sun"><circle id="mostly-clear-day-hail__Core" cx="50" cy="62" r="12.5" fill="url(#mostly-clear-day-hail__paint0_linear_1858_8745)" stroke="#f8af18"/><g id="mostly-clear-day-hail__Rays"><path fill="#f8af18" d="M48 32a2 2 0 1 1 4 0v9.333a2 2 0 1 1-4 0zM69.799 39.373a2 2 0 1 1 2.828 2.828l-6.6 6.6a2 2 0 0 1-2.828-2.829zM80 60a2 2 0 1 1 0 4h-9.333a2 2 0 1 1 0-4zM72.627 81.799a2 2 0 1 1-2.828 2.828l-6.6-6.6a2 2 0 0 1 2.829-2.828zM48 82.667a2 2 0 1 1 4 0V92a2 2 0 1 1-4 0zM33.972 75.2a2 2 0 0 1 2.829 2.828l-6.6 6.6a2 2 0 1 1-2.828-2.829zM29.333 60a2 2 0 1 1 0 4H20a2 2 0 1 1 0-4zM36.8 45.972a2 2 0 0 1-2.828 2.829l-6.6-6.6a2 2 0 1 1 2.829-2.828z"/><animateTransform attributeName="transform" begin="0s" dur="6s" repeatCount="indefinite" type="rotate" values="0 50.0 62.0;360 50.0 62.0"/></g></g><g id="mostly-clear-day-hail__Clouds"><g id="mostly-clear-day-hail__Cloud"><path id="mostly-clear-day-hail__Cloud_2" fill="url(#mostly-clear-day-hail__paint1_linear_1858_8745)" stroke="#e6effc" stroke-miterlimit="10" d="M58.014 59.889c3.322-5.529 10.351-7.921 16.294-5.364 5.984 2.575 9.206 9.392 7.678 15.698l-.156.647.665-.03c4.915-.22 9.004 3.93 9.004 8.82 0 4.737-3.854 8.839-8.616 8.839-12.371-.011-24.747.001-37.116.001-4.784.001-8.79-3.869-9.227-8.612-.436-4.752 2.797-9.317 7.5-10.23l.478-.094-.08-.48c-.558-3.337.853-6.826 3.625-8.764 2.734-1.911 6.422-2.019 9.26-.263l.43.265z"/></g><animateTransform attributeName="transform" begin="0s" calcMode="spline" dur="3s" keySplines=".42 0 .58 1; .42 0 .58 1" repeatCount="indefinite" type="translate" values="0 0;0 -3;0 0"/></g></g><g id="mostly-clear-day-hail__Precipitation"><g id="mostly-clear-day-hail__Ice balls"><path id="mostly-clear-day-hail__Ice Ball 1" fill="#86c3db" d="M52 86a3 3 0 1 0 0 5.999A3 3 0 0 0 52 86"><animateTransform attributeName="transform" begin="0s" calcMode="spline" dur="1s" keySplines=".42 0 1 1" repeatCount="indefinite" type="translate" values="0 0;0 20"/><animate attributeName="opacity" begin="0s" dur="1s" keyTimes="0;0.15;0.85;1" repeatCount="indefinite" values="0;1;1;0"/></path><path id="mostly-clear-day-hail__Ice Ball 2" fill="#86c3db" d="M64 86a3 3 0 1 0 0 5.999A3 3 0 0 0 64 86"><animateTransform attributeName="transform" begin="-0.7s" calcMode="spline" dur="1s" keySplines=".42 0 1 1" repeatCount="indefinite" type="translate" values="0 0;0 20"/><animate attributeName="opacity" begin="-0.7s" dur="1s" keyTimes="0;0.15;0.85;1" repeatCount="indefinite" values="0;1;1;0"/></path><path id="mostly-clear-day-hail__Ice Ball 3" fill="#86c3db" d="M76 86a3 3 0 1 0 0 5.999A3 3 0 0 0 76 86"><animateTransform attributeName="transform" begin="-0.4s" calcMode="spline" dur="1s" keySplines=".42 0 1 1" repeatCount="indefinite" type="translate" values="0 0;0 20"/><animate attributeName="opacity" begin="-0.4s" dur="1s" keyTimes="0;0.15;0.85;1" repeatCount="indefinite" values="0;1;1;0"/></path></g></g></g><defs><linearGradient id="mostly-clear-day-hail__paint0_linear_1858_8745" x1="50" x2="50" y1="49" y2="75" gradientUnits="userSpaceOnUse"><stop stop-color="#fbbf24"/><stop offset="1" stop-color="#f8af18"/></linearGradient><linearGradient id="mostly-clear-day-hail__paint1_linear_1858_8745" x1="64.001" x2="64.001" y1="53" y2="89" gradientUnits="userSpaceOnUse"><stop stop-color="#f3f7fe"/><stop offset="1" stop-color="#e6effc"/></linearGradient><clipPath id="mostly-clear-day-hail__clip0_1858_8745"><rect width="128" height="128" fill="#fff"/></clipPath></defs></svg>