<svg xmlns="http://www.w3.org/2000/svg" fill="none" viewBox="0 0 128 128"><g id="thunderstorms-mostly-clear-day-rain__thunderstorms-mostly-clear-day-rain" clip-path="url(#thunderstorms-mostly-clear-day-rain__clip0_1858_9960)"><g id="thunderstorms-mostly-clear-day-rain__Sky"><g id="thunderstorms-mostly-clear-day-rain__Sun"><circle id="thunderstorms-mostly-clear-day-rain__Core" cx="50" cy="62" r="12.5" fill="url(#thunderstorms-mostly-clear-day-rain__paint0_linear_1858_9960)" stroke="#f8af18"/><g id="thunderstorms-mostly-clear-day-rain__Rays"><path fill="#f8af18" d="M48 32a2 2 0 1 1 4 0v9.333a2 2 0 1 1-4 0zM69.799 39.373a2 2 0 1 1 2.828 2.828l-6.6 6.6a2 2 0 0 1-2.828-2.829zM80 60a2 2 0 1 1 0 4h-9.333a2 2 0 1 1 0-4zM72.627 81.799a2 2 0 1 1-2.828 2.828l-6.6-6.6a2 2 0 0 1 2.829-2.828zM48 82.667a2 2 0 1 1 4 0V92a2 2 0 1 1-4 0zM33.972 75.2a2 2 0 0 1 2.829 2.828l-6.6 6.6a2 2 0 1 1-2.828-2.829zM29.333 60a2 2 0 1 1 0 4H20a2 2 0 1 1 0-4zM36.8 45.972a2 2 0 0 1-2.828 2.829l-6.6-6.6a2 2 0 1 1 2.829-2.828z"/><animateTransform attributeName="transform" begin="0s" dur="6s" repeatCount="indefinite" type="rotate" values="0 50.0 62.0;360 50.0 62.0"/></g></g><g id="thunderstorms-mostly-clear-day-rain__Clouds"><g id="thunderstorms-mostly-clear-day-rain__Cloud"><path id="thunderstorms-mostly-clear-day-rain__Cloud_2" fill="url(#thunderstorms-mostly-clear-day-rain__paint1_linear_1858_9960)" stroke="#e6effc" stroke-miterlimit="10" d="M58.014 59.889c3.322-5.529 10.351-7.921 16.294-5.364 5.984 2.575 9.206 9.392 7.678 15.698l-.156.647.665-.03c4.915-.22 9.004 3.93 9.004 8.82 0 4.737-3.854 8.839-8.616 8.839-12.371-.011-24.747.001-37.116.001-4.784.001-8.79-3.869-9.227-8.612-.436-4.752 2.797-9.317 7.5-10.23l.478-.094-.08-.48c-.558-3.337.853-6.826 3.625-8.764 2.734-1.911 6.422-2.019 9.26-.263l.43.265z"/></g><animateTransform attributeName="transform" begin="0s" calcMode="spline" dur="3s" keySplines=".42 0 .58 1; .42 0 .58 1" repeatCount="indefinite" type="translate" values="0 0;0 -3;0 0"/></g></g><g id="thunderstorms-mostly-clear-day-rain__Precipitation"><g id="thunderstorms-mostly-clear-day-rain__Raindrops"><path id="thunderstorms-mostly-clear-day-rain__Raindrop 1" stroke="#0a5ad4" stroke-linecap="round" stroke-width="4" d="M52 83v12"><animateTransform attributeName="transform" begin="0s" calcMode="spline" dur="1s" keySplines=".42 0 1 1" repeatCount="indefinite" type="translate" values="0 0;0 20"/><animate attributeName="opacity" begin="0s" dur="1s" keyTimes="0;0.15;0.85;1" repeatCount="indefinite" values="0;1;1;0"/></path><path id="thunderstorms-mostly-clear-day-rain__Raindrop 2" stroke="#0a5ad4" stroke-linecap="round" stroke-width="4" d="M64 83v12"><animateTransform attributeName="transform" begin="-0.6s" calcMode="spline" dur="1s" keySplines=".42 0 1 1" repeatCount="indefinite" type="translate" values="0 0;0 20"/><animate attributeName="opacity" begin="-0.6s" dur="1s" keyTimes="0;0.15;0.85;1" repeatCount="indefinite" values="0;1;1;0"/></path><path id="thunderstorms-mostly-clear-day-rain__Raindrop 3" stroke="#0a5ad4" stroke-linecap="round" stroke-width="4" d="M76 83v12"><animateTransform attributeName="transform" begin="-0.19999999999999996s" calcMode="spline" dur="1s" keySplines=".42 0 1 1" repeatCount="indefinite" type="translate" values="0 0;0 20"/><animate attributeName="opacity" begin="-0.19999999999999996s" dur="1s" keyTimes="0;0.15;0.85;1" repeatCount="indefinite" values="0;1;1;0"/></path></g></g><g id="thunderstorms-mostly-clear-day-rain__Lightning"><path id="thunderstorms-mostly-clear-day-rain__Lightning Bolt" fill="url(#thunderstorms-mostly-clear-day-rain__paint2_linear_1858_9960)" stroke="#f6a823" stroke-miterlimit="10" d="m71.173 68.5-7.616 14.541-.384.731h11.829l-18.05 24.12 3.537-16.88.127-.603h-7.912L60.355 68.5z"><animate attributeName="opacity" begin="0s" dur="2s" keyTimes="0;0.25;0.33;0.42;0.5;0.57;0.63;0.67;1" repeatCount="indefinite" values="1;1;0;1;0;1;0;1;1"/></path></g></g><defs><linearGradient id="thunderstorms-mostly-clear-day-rain__paint0_linear_1858_9960" x1="50" x2="50" y1="49" y2="75" gradientUnits="userSpaceOnUse"><stop stop-color="#fbbf24"/><stop offset="1" stop-color="#f8af18"/></linearGradient><linearGradient id="thunderstorms-mostly-clear-day-rain__paint1_linear_1858_9960" x1="64.001" x2="64.001" y1="53" y2="89" gradientUnits="userSpaceOnUse"><stop stop-color="#f3f7fe"/><stop offset="1" stop-color="#e6effc"/></linearGradient><linearGradient id="thunderstorms-mostly-clear-day-rain__paint2_linear_1858_9960" x1="64.528" x2="84.414" y1="66.038" y2="77.457" gradientUnits="userSpaceOnUse"><stop stop-color="#f7b23b"/><stop offset="1" stop-color="#f6a823"/></linearGradient><clipPath id="thunderstorms-mostly-clear-day-rain__clip0_1858_9960"><rect width="128" height="128" fill="#fff"/></clipPath></defs></svg>