<svg xmlns="http://www.w3.org/2000/svg" fill="none" viewBox="0 0 128 128"><g id="extreme-night-fog__extreme-night-fog" clip-path="url(#extreme-night-fog__clip0_2045_39809)"><g id="extreme-night-fog__Sky"><g id="extreme-night-fog__Mask group"><mask id="extreme-night-fog__mask0_2045_39809" width="128" height="128" x="0" y="0" maskUnits="userSpaceOnUse" style="mask-type:alpha"><g id="extreme-night-fog__Cloud Mask"><path id="extreme-night-fog__Subtract" fill="#000" fill-rule="evenodd" d="M128 0H0v128h128zM37.952 93h53.023c9.252 0 17.023-7.647 17.023-16.972 0-8.006-5.693-14.678-13.073-16.477.437-9.65-5.25-18.942-14.374-22.759-9.444-3.95-20.485-1.18-27.02 6.446-4.96-1.642-10.55-.942-14.957 2.053-4.428 3.009-7.143 7.99-7.39 13.247-7.12 2.925-11.856 10.313-11.106 18.246.864 9.145 8.75 16.218 17.874 16.216" clip-rule="evenodd"/><animateTransform attributeName="transform" begin="0s" calcMode="spline" dur="3s" keySplines=".42 0 .58 1; .42 0 .58 1" repeatCount="indefinite" type="translate" values="0 0;0 -3;0 0"/></g></mask><g mask="url(#extreme-night-fog__mask0_2045_39809)"><g id="extreme-night-fog__Moon"><path id="extreme-night-fog__Moon_2" fill="#72b9d5" d="M35.766 34C29.15 34.714 24 40.241 24 46.959 24 54.16 29.918 60 37.218 60 43.37 60 48.527 55.846 50 50.23c-8.783.941-16.523-7.51-14.234-16.23"/><animateTransform attributeName="transform" begin="0s" calcMode="spline" dur="3s" keySplines=".42 0 .58 1; .42 0 .58 1" repeatCount="indefinite" type="rotate" values="-6 37.0 47.0;6 37.0 47.0;-6 37.0 47.0"/></g></g></g><g id="extreme-night-fog__Clouds" clip-path="url(#extreme-night-fog__clip1_2045_39809)"><g id="extreme-night-fog__Mask group_2"><mask id="extreme-night-fog__mask1_2045_39809" width="128" height="128" x="0" y="0" maskUnits="userSpaceOnUse" style="mask-type:alpha"><g id="extreme-night-fog__Cloud Mask_2"><path id="extreme-night-fog__Subtract_2" fill="#000" fill-rule="evenodd" d="M128 0H0v128h128zM37.952 93h53.023c9.252 0 17.023-7.647 17.023-16.972 0-8.006-5.693-14.678-13.073-16.477.437-9.65-5.25-18.942-14.374-22.759-9.444-3.95-20.485-1.18-27.02 6.446-4.96-1.642-10.55-.942-14.957 2.053-4.428 3.009-7.143 7.99-7.39 13.247-7.12 2.925-11.856 10.313-11.106 18.246.864 9.145 8.75 16.218 17.874 16.216" clip-rule="evenodd"/></g></mask><g mask="url(#extreme-night-fog__mask1_2045_39809)"><g id="extreme-night-fog__Secondary Cloud"><path id="extreme-night-fog__Cloud" fill="#b0bccd" d="M101.194 55.562c1.173-4.512-1.434-9.14-5.69-10.849-4.312-1.732-9.543-.239-12.085 3.71-2.154-1.243-4.923-1.173-7.007.186-2.031 1.325-3.169 3.763-2.737 6.17-3.375.612-5.987 3.69-5.644 7.177.344 3.495 3.509 6.045 6.946 6.044 8.836 0 17.674-.007 26.511 0 3.423 0 6.512-2.715 6.512-6.226 0-3.631-3.279-6.36-6.806-6.212"/><animateTransform attributeName="transform" begin="0s" calcMode="spline" dur="3s" keySplines=".42 0 .58 1; .42 0 .58 1" repeatCount="indefinite" type="translate" values="0 -3;0 0;0 -3"/></g></g><animateTransform attributeName="transform" begin="0s" calcMode="spline" dur="3s" keySplines=".42 0 .58 1; .42 0 .58 1" repeatCount="indefinite" type="translate" values="0 0;0 -3;0 0"/></g><g id="extreme-night-fog__Cloud_2"><path id="extreme-night-fog__Cloud_3" fill="#7c8ca2" d="M90.389 63.086c2.295-9.204-2.648-18.95-11.38-22.604-8.744-3.658-19.181-.344-24.172 7.73-4.3-2.587-9.862-2.434-14.013.387-4.14 2.814-6.324 7.915-5.474 12.855-6.957 1.315-11.957 7.885-11.289 14.954S30.871 89.002 37.953 89h53.024C98.045 89 104 83.119 104 76.028c0-7.327-6.323-13.26-13.611-12.942"/><animateTransform attributeName="transform" begin="0s" calcMode="spline" dur="3s" keySplines=".42 0 .58 1; .42 0 .58 1" repeatCount="indefinite" type="translate" values="0 0;0 -3;0 0"/></g></g></g><g id="extreme-night-fog__Precipitation"><path id="extreme-night-fog__Line 2" stroke="#e2e8f0" stroke-linecap="round" stroke-miterlimit="10" stroke-width="3" d="M40 95h48"><animateTransform attributeName="transform" begin="0s" calcMode="spline" dur="3s" keySplines=".42 0 .58 1; .42 0 .58 1" repeatCount="indefinite" type="translate" values="0 0;3 0;0 0"/></path><path id="extreme-night-fog__Line 1" stroke="#e2e8f0" stroke-linecap="round" stroke-miterlimit="10" stroke-width="3" d="M40 103h48"><animateTransform attributeName="transform" begin="-2.8s" calcMode="spline" dur="3s" keySplines=".42 0 .58 1; .42 0 .58 1" repeatCount="indefinite" type="translate" values="0 0;3 0;0 0"/></path></g></g><defs><clipPath id="extreme-night-fog__clip0_2045_39809"><rect width="128" height="128" fill="#fff"/></clipPath><clipPath id="extreme-night-fog__clip1_2045_39809"><rect width="128" height="128" fill="#fff"/></clipPath></defs></svg>