<svg xmlns="http://www.w3.org/2000/svg" fill="none" viewBox="0 0 128 128"><g id="smoke__smoke" clip-path="url(#smoke__clip0_1858_9232)"><g id="smoke__Sky"><g id="smoke__Clouds"><g id="smoke__Cloud"><path id="smoke__Cloud_2" fill="url(#smoke__paint0_linear_1858_9232)" stroke="#e6effc" stroke-miterlimit="10" d="M55.262 48.475c4.86-7.864 15.035-11.095 23.553-7.532 8.506 3.56 13.323 13.06 11.088 22.022l-.161.65.669-.03c7.01-.306 13.089 5.407 13.089 12.443 0 6.811-5.728 12.472-12.523 12.472H37.954c-6.826.002-12.751-5.33-13.395-12.14-.643-6.808 4.178-13.148 10.884-14.415l.483-.092-.084-.484c-.816-4.745 1.284-9.652 5.263-12.356 3.99-2.712 9.34-2.86 13.475-.373l.423.255z"/></g><animateTransform attributeName="transform" begin="0s" calcMode="spline" dur="3s" keySplines=".42 0 .58 1; .42 0 .58 1" repeatCount="indefinite" type="translate" values="0 0;0 -3;0 0"/></g></g><g id="smoke__Smoke"><path id="smoke__Smoke 1" fill="url(#smoke__paint1_linear_1858_9232)" stroke="#94a3b8" stroke-miterlimit="10" d="M62.5 101.5a4 4 0 1 1 0 8 4 4 0 0 1 0-8Z"><animateTransform attributeName="transform" begin="-2.9s" calcMode="spline" dur="3s" keySplines=".42 0 .58 1" repeatCount="indefinite" type="translate" values="0 0;8 -4"/><animate attributeName="opacity" begin="-2.9s" dur="3s" keyTimes="0;0.2;0.8;1" repeatCount="indefinite" values="0;1;1;0"/></path><path id="smoke__Smoke 2" fill="url(#smoke__paint2_linear_1858_9232)" stroke="#94a3b8" stroke-miterlimit="10" d="M53.5 86.5a7 7 0 1 1 0 14 7 7 0 0 1 0-14Z"><animateTransform attributeName="transform" begin="-2.5s" calcMode="spline" dur="3s" keySplines=".42 0 .58 1" repeatCount="indefinite" type="translate" values="0 0;8 -4"/><animate attributeName="opacity" begin="-2.5s" dur="3s" keyTimes="0;0.2;0.8;1" repeatCount="indefinite" values="0;1;1;0"/></path><path id="smoke__Smoke 3" fill="url(#smoke__paint3_linear_1858_9232)" stroke="#94a3b8" stroke-miterlimit="10" d="M71.5 68.5c5.523 0 10 4.477 10 10s-4.477 10-10 10-10-4.477-10-10 4.477-10 10-10Z"><animateTransform attributeName="transform" begin="-2.1s" calcMode="spline" dur="3s" keySplines=".42 0 .58 1" repeatCount="indefinite" type="translate" values="0 0;8 -4"/><animate attributeName="opacity" begin="-2.1s" dur="3s" keyTimes="0;0.2;0.8;1" repeatCount="indefinite" values="0;1;1;0"/></path></g></g><defs><linearGradient id="smoke__paint0_linear_1858_9232" x1="64.001" x2="64.001" y1="39" y2="89" gradientUnits="userSpaceOnUse"><stop stop-color="#f3f7fe"/><stop offset="1" stop-color="#e6effc"/></linearGradient><linearGradient id="smoke__paint1_linear_1858_9232" x1="62.5" x2="62.5" y1="101" y2="110" gradientUnits="userSpaceOnUse"><stop stop-color="#b0bccd"/><stop offset="1" stop-color="#94a3b8"/></linearGradient><linearGradient id="smoke__paint2_linear_1858_9232" x1="53.5" x2="53.5" y1="86" y2="101" gradientUnits="userSpaceOnUse"><stop stop-color="#b0bccd"/><stop offset="1" stop-color="#94a3b8"/></linearGradient><linearGradient id="smoke__paint3_linear_1858_9232" x1="71.5" x2="71.5" y1="68" y2="89" gradientUnits="userSpaceOnUse"><stop stop-color="#b0bccd"/><stop offset="1" stop-color="#94a3b8"/></linearGradient><clipPath id="smoke__clip0_1858_9232"><rect width="128" height="128" fill="#fff"/></clipPath></defs></svg>