<svg xmlns="http://www.w3.org/2000/svg" fill="none" viewBox="0 0 128 128"><g id="extreme-thunderstorms-day__extreme-thunderstorms-day" clip-path="url(#extreme-thunderstorms-day__clip0_1858_21443)"><g id="extreme-thunderstorms-day__Sky"><g id="extreme-thunderstorms-day__Sun"><circle id="extreme-thunderstorms-day__Core" cx="39" cy="51" r="8.5" fill="url(#extreme-thunderstorms-day__paint0_linear_1858_21443)" stroke="#f8af18"/><g id="extreme-thunderstorms-day__Rays"><path fill="#f8af18" d="M37.688 31.313a1.312 1.312 0 1 1 2.624 0v6.125a1.312 1.312 0 1 1-2.624 0zM51.993 36.15a1.312 1.312 0 1 1 1.856 1.857l-4.33 4.33a1.312 1.312 0 1 1-1.857-1.855zM58.688 49.688a1.312 1.312 0 1 1 0 2.624h-6.126a1.312 1.312 0 1 1 0-2.624zM53.85 63.993a1.312 1.312 0 1 1-1.857 1.856l-4.33-4.33a1.312 1.312 0 1 1 1.855-1.857zM37.688 64.563a1.312 1.312 0 1 1 2.624 0v6.124a1.312 1.312 0 1 1-2.624 0zM28.482 59.662a1.312 1.312 0 1 1 1.856 1.856l-4.331 4.331a1.312 1.312 0 1 1-1.856-1.856zM25.438 49.688a1.312 1.312 0 1 1 0 2.624h-6.125a1.312 1.312 0 1 1 0-2.624zM30.338 40.482a1.312 1.312 0 1 1-1.856 1.856l-4.331-4.331a1.312 1.312 0 1 1 1.856-1.856z"/><animateTransform attributeName="transform" begin="0s" dur="6s" repeatCount="indefinite" type="rotate" values="0 39.0 51.0;360 39.0 51.0"/></g></g><g id="extreme-thunderstorms-day__Clouds"><g id="extreme-thunderstorms-day__Cloud"><path id="extreme-thunderstorms-day__Cloud_2" fill="url(#extreme-thunderstorms-day__paint1_linear_1858_21443)" stroke="#e6effc" stroke-miterlimit="10" d="M55.262 48.475c4.86-7.864 15.035-11.095 23.553-7.532 8.506 3.56 13.323 13.06 11.088 22.022l-.161.65.669-.03c7.01-.306 13.089 5.407 13.089 12.443-.001 6.811-5.728 12.472-12.523 12.472H37.954c-6.827.002-12.751-5.33-13.395-12.14-.643-6.808 4.178-13.148 10.884-14.415l.483-.092-.084-.484c-.816-4.745 1.284-9.652 5.263-12.356 3.99-2.712 9.34-2.86 13.475-.373l.422.255z"/></g><animateTransform attributeName="transform" begin="0s" calcMode="spline" dur="3s" keySplines=".42 0 .58 1; .42 0 .58 1" repeatCount="indefinite" type="translate" values="0 0;0 -3;0 0"/></g></g><g id="extreme-thunderstorms-day__Lightning"><path id="extreme-thunderstorms-day__Lightning Bolt" fill="url(#extreme-thunderstorms-day__paint2_linear_1858_21443)" stroke="#f6a823" stroke-miterlimit="10" d="m65.173 68.5-7.616 14.541-.384.731h11.829l-18.05 24.12 3.537-16.88.127-.603h-7.912L54.355 68.5z"><animate attributeName="opacity" begin="0s" dur="2s" keyTimes="0;0.25;0.33;0.42;0.5;0.57;0.63;0.67;1" repeatCount="indefinite" values="1;1;0;1;0;1;0;1;1"/></path><path id="extreme-thunderstorms-day__Lightning Bolt Small" fill="url(#extreme-thunderstorms-day__paint3_linear_1858_21443)" stroke="#f6a823" stroke-miterlimit="10" d="m79.173 68.5-3.616 6.904-.383.733H81l-8.049 10.755 1.537-7.334.127-.603h-3.912L74.356 68.5z"><animate attributeName="opacity" begin="-1.5s" dur="2s" keyTimes="0;0.25;0.33;0.42;0.5;0.57;0.63;0.67;1" repeatCount="indefinite" values="1;1;0;1;0;1;0;1;1"/></path></g></g><defs><linearGradient id="extreme-thunderstorms-day__paint0_linear_1858_21443" x1="39" x2="39" y1="42" y2="60" gradientUnits="userSpaceOnUse"><stop stop-color="#fbbf24"/><stop offset="1" stop-color="#f8af18"/></linearGradient><linearGradient id="extreme-thunderstorms-day__paint1_linear_1858_21443" x1="64.001" x2="64.001" y1="39" y2="89" gradientUnits="userSpaceOnUse"><stop stop-color="#f3f7fe"/><stop offset="1" stop-color="#e6effc"/></linearGradient><linearGradient id="extreme-thunderstorms-day__paint2_linear_1858_21443" x1="58.528" x2="78.414" y1="66.038" y2="77.457" gradientUnits="userSpaceOnUse"><stop stop-color="#f7b23b"/><stop offset="1" stop-color="#f6a823"/></linearGradient><linearGradient id="extreme-thunderstorms-day__paint3_linear_1858_21443" x1="76.264" x2="86.207" y1="67.019" y2="72.729" gradientUnits="userSpaceOnUse"><stop stop-color="#f7b23b"/><stop offset="1" stop-color="#f6a823"/></linearGradient><clipPath id="extreme-thunderstorms-day__clip0_1858_21443"><rect width="128" height="128" fill="#fff"/></clipPath></defs></svg>